<svg width="161" height="157" viewBox="0 0 161 157" fill="none" xmlns="http://www.w3.org/2000/svg">
<rect x="2.5" y="2.5" width="156" height="152" rx="15" stroke="url(#paint0_linear_606_1325)" stroke-width="4"/>
<path fill-rule="evenodd" clip-rule="evenodd" d="M62.6113 65.7201C63.2189 66.3963 64.0911 66.7712 64.9976 66.7712C65.9066 66.7712 66.7788 66.3963 67.3839 65.7201L70.1059 62.6822C72.3991 60.1219 76.0693 59.3061 79.2396 60.6193C80.788 61.2612 82.0963 62.371 82.9906 63.7896C83.8824 65.2008 84.3234 66.8594 84.2401 68.5278L84.0343 72.5801C83.9878 73.4842 84.3234 74.3931 84.9653 75.035C85.6072 75.6769 86.5162 76.0101 87.4203 75.9636L91.4726 75.7602C93.1558 75.6769 94.8242 76.1228 96.2453 77.0269C97.6491 77.9211 98.7467 79.2196 99.3838 80.7582C100.697 83.926 99.8664 87.5888 97.3208 89.8869L94.3073 92.6088C93.6311 93.2189 93.244 94.0886 93.244 95C93.244 95.9114 93.6311 96.7811 94.3073 97.3912L97.3208 100.113C99.8664 102.411 100.697 106.074 99.3838 109.242C98.7467 110.78 97.6491 112.079 96.2477 112.973C94.8267 113.877 93.1558 114.323 91.4726 114.24L87.4203 114.036C86.5162 113.99 85.6121 114.333 84.9727 114.972C84.3332 115.612 83.9878 116.516 84.0343 117.42L84.2401 121.472C84.3234 123.143 83.8824 124.799 82.9906 126.21C82.0963 127.629 80.788 128.739 79.2396 129.381C76.0693 130.694 72.3991 129.878 70.1059 127.318L67.3839 124.28C66.7788 123.604 65.9066 123.226 64.9976 123.226C64.0911 123.226 63.2189 123.604 62.6113 124.28L59.8917 127.318C57.5985 129.878 53.9259 130.694 50.7556 129.381C49.2096 128.739 47.9037 127.631 47.0095 126.215C46.1152 124.802 45.6742 123.143 45.7575 121.472L45.9633 117.42C46.0099 116.518 45.6595 115.614 45.0225 114.977C44.383 114.338 43.4814 113.99 42.5774 114.036L38.525 114.24C36.8517 114.323 35.1881 113.88 33.7744 112.985C32.3632 112.089 31.2582 110.785 30.6163 109.242C29.3056 106.074 30.1288 102.409 32.6744 100.113L35.6903 97.3912C36.3665 96.7811 36.7488 95.9089 36.7488 95C36.7488 94.0911 36.3665 93.2189 35.6903 92.6088L32.6744 89.8869C30.1288 87.5912 29.3056 83.926 30.6163 80.7582C31.2582 79.2147 32.3632 77.9113 33.7744 77.0171C35.1881 76.1204 36.8517 75.6769 38.525 75.7602L42.5774 75.9636C43.4814 76.0101 44.3855 75.6671 45.0249 75.0277C45.6644 74.3882 46.0099 73.4842 45.9633 72.5801L45.7575 68.5278C45.6742 66.8569 46.1152 65.1983 47.0095 63.7847C47.9037 62.3686 49.2096 61.2612 50.7556 60.6193C53.9259 59.3061 57.5985 60.1219 59.8917 62.6822L62.6113 65.7201ZM109.501 49C110.329 49 111 49.6714 111 50.5011C111 51.3286 110.329 52 109.501 52C108.671 52 108 51.3286 108 50.5011C108 49.6714 108.671 49 109.501 49ZM119.725 32.8783C121.833 32.0586 124.236 32.5617 125.836 34.1617C127.433 35.7617 127.939 38.1641 127.119 40.2721L124.945 45.8623C124.817 46.1911 124.918 46.5641 125.193 46.785L129.865 50.542C131.625 51.9555 132.391 54.2917 131.807 56.4708C131.22 58.6573 129.399 60.2917 127.164 60.6377L121.237 61.5579C120.888 61.6119 120.611 61.8794 120.557 62.2303L119.639 68.1616C119.293 70.3972 117.659 72.2205 115.475 72.807C113.293 73.391 110.957 72.6229 109.543 70.8634L105.786 66.1911C105.565 65.9187 105.192 65.8107 104.863 65.9383L99.2727 68.1125C97.1647 68.9346 94.7621 68.4291 93.162 66.8291C91.562 65.2291 91.0589 62.8291 91.8786 60.7211L94.0504 55.131C94.178 54.7997 94.0799 54.4267 93.8026 54.2058L89.1275 50.4439C87.3728 49.0304 86.6096 46.6942 87.1937 44.5175C87.7802 42.3334 89.6012 40.7015 91.8344 40.3555L97.761 39.4402C98.1095 39.3862 98.3844 39.1114 98.4408 38.7604L99.3562 32.839C99.7022 30.6034 101.334 28.7801 103.521 28.1936C105.705 27.6096 108.034 28.3727 109.45 30.1347L113.21 34.8071C113.43 35.0819 113.803 35.185 114.132 35.0549L119.725 32.8783ZM59.825 68.6228L57.1336 65.619C55.7455 64.0686 53.524 63.5817 51.6078 64.3763C49.694 65.1708 48.4755 67.1015 48.5796 69.1679L48.7807 73.1771C48.8703 74.9479 48.2017 76.6945 46.9468 77.9493C45.692 79.2041 43.9453 79.8703 42.1745 79.7831L38.1652 79.5796C36.0988 79.4779 34.168 80.6964 33.3758 82.6077C32.5788 84.5263 33.0755 86.7452 34.6186 88.1381L37.6032 90.8271C38.9234 92.0214 39.6744 93.7219 39.6744 95.5C39.6744 97.2805 38.9234 98.9786 37.6032 100.173L34.6186 102.864C33.0755 104.255 32.5788 106.474 33.3758 108.392C34.168 110.304 36.0988 111.522 38.1652 111.418L42.1745 111.219C43.9478 111.13 45.6896 111.798 46.9444 113.053C48.1969 114.308 48.8703 116.055 48.7807 117.823L48.5796 121.832C48.4755 123.898 49.694 125.829 51.6078 126.624C53.524 127.418 55.7455 126.931 57.1336 125.381L59.825 122.377C61.0145 121.05 62.7175 120.304 64.4981 120.304C66.2786 120.304 67.9841 121.05 69.1735 122.377L71.865 125.381C73.2531 126.931 75.4721 127.416 77.3907 126.624C79.3021 125.829 80.5255 123.901 80.4189 121.832L80.2178 117.823C80.1282 116.052 80.7968 114.306 82.0517 113.051C83.3066 111.796 85.0532 111.13 86.8241 111.219L90.8334 111.418C92.8998 111.522 94.8354 110.308 95.6275 108.392C96.4221 106.471 95.9182 104.257 94.3751 102.862L91.3954 100.17C90.0727 98.9786 89.3193 97.2805 89.3193 95.5C89.3193 93.7195 90.0727 92.0214 91.3954 90.8295L94.3751 88.1381C95.9182 86.7452 96.4221 84.5287 95.6275 82.6077C94.8329 80.6939 92.8998 79.4779 90.8334 79.5796L86.8241 79.7831C85.0508 79.8703 83.3017 79.2138 82.0444 77.9566C80.7847 76.6993 80.1282 74.9503 80.2178 73.1771L80.4189 69.1679C80.5255 67.0991 79.3021 65.1708 77.3907 64.3763C75.4721 63.5841 73.2531 64.0686 71.865 65.619L69.1735 68.6228C67.9841 69.9503 66.2786 70.6989 64.4981 70.6989C62.7175 70.6989 61.0145 69.9503 59.825 68.6228ZM74 95C74 99.9692 69.9698 104 64.9988 104C60.0302 104 56 99.9692 56 95C56 90.0283 60.0302 86 64.9988 86C69.9698 86 74 90.0283 74 95ZM70 95.5C70 92.46 67.5382 90 64.4988 90C61.4618 90 59 92.46 59 95.5C59 98.5377 61.4618 101 64.4988 101C67.5382 101 70 98.5377 70 95.5ZM121.159 35.581L115.668 37.7181C114.09 38.3325 112.295 37.8506 111.233 36.5303L107.542 31.9429C106.918 31.167 105.894 30.8273 104.93 31.0851C103.966 31.3453 103.248 32.1476 103.096 33.1331L102.195 38.9469C101.937 40.6214 100.622 41.9369 98.9474 42.1971L93.1289 43.0958C92.1458 43.2476 91.3435 43.9656 91.0857 44.9293C90.8279 45.8883 91.1628 46.9147 91.9386 47.5387L96.5284 51.2298C97.8488 52.2924 98.3258 54.0873 97.7138 55.6655L95.5792 61.154C95.2178 62.084 95.4394 63.1417 96.1454 63.8477C96.8513 64.5536 97.909 64.7753 98.839 64.4139L104.327 62.2792C105.906 61.6648 107.703 62.1515 108.763 63.4694L112.452 68.0592C113.076 68.8351 114.102 69.1724 115.064 68.9146C116.027 68.6568 116.748 67.852 116.899 66.869L117.801 61.0456C118.061 59.3711 119.376 58.0604 121.051 57.8026L126.867 56.8991C127.852 56.7473 128.657 56.0269 128.915 55.0631C129.173 54.1018 128.833 53.0754 128.057 52.4514L123.47 48.7626C122.149 47.7025 121.67 45.9051 122.282 44.327L124.417 38.8385C124.778 37.9084 124.556 36.8507 123.853 36.1448C123.147 35.4413 122.089 35.2196 121.159 35.581Z" fill="#03A9F4"/>
<defs>
<linearGradient id="paint0_linear_606_1325" x1="2.5" y1="2.5" x2="2.5" y2="154.5" gradientUnits="userSpaceOnUse">
<stop stop-color="#FFE0B2"/>
<stop offset="1" stop-color="#FF9800"/>
</linearGradient>
</defs>
</svg>
