<svg width="161" height="157" viewBox="0 0 161 157" fill="none" xmlns="http://www.w3.org/2000/svg">
<rect x="2.5" y="2.5" width="156" height="152" rx="15" stroke="url(#paint0_linear_606_1350)" stroke-width="4"/>
<path fill-rule="evenodd" clip-rule="evenodd" d="M97 68V77H94V68H97ZM50.0984 107.285H46.8576C42.6536 107.285 38.6179 105.612 35.6454 102.632C32.6704 99.6552 31 95.6133 31 91.4029V78.4224C31 74.2096 32.6704 70.1701 35.6454 67.1906C38.2326 64.5994 41.6246 62.9948 45.2336 62.6236C45.9334 53.729 49.718 45.3252 56.0654 38.9681C63.0761 31.9467 72.5838 28 82.4988 28C92.4137 28 101.924 31.9467 108.935 38.9681C115.277 45.3228 119.106 53.7265 119.776 62.6236C123.38 62.9997 126.77 64.6018 129.355 67.1906C132.327 70.1701 134 74.2096 134 78.4224V91.4029C134 95.6133 132.327 99.6552 129.355 102.632C126.765 105.226 123.368 106.83 119.757 107.202V107.627C119.757 111.5 118.223 115.215 115.489 117.952C112.756 120.69 109.047 122.229 105.182 122.229H98.2174C97.8857 124.119 96.9835 125.878 95.6106 127.25C93.8525 129.011 91.4676 130 88.9803 130H82.4988C80.0139 130 77.6267 129.011 75.8685 127.25C74.1103 125.489 73.1227 123.098 73.1227 120.61C73.1227 118.119 74.1103 115.73 75.8685 113.967C77.6267 112.206 80.0115 111.217 82.4988 111.217H88.9803C91.4676 111.217 93.8525 112.206 95.6131 113.967C96.9859 115.342 97.8882 117.1 98.2174 118.988H105.182C108.188 118.988 111.076 117.791 113.202 115.662C115.328 113.532 116.523 110.64 116.523 107.627V107.285H114.902C113.273 107.285 111.712 106.638 110.561 105.485C109.41 104.332 108.764 102.769 108.764 101.138V68.6877C108.764 67.0562 109.41 65.4957 110.559 64.3429C111.71 63.1877 113.273 62.5405 114.902 62.5405H116.275C115.594 54.5984 112.141 47.1154 106.469 41.4347C100.112 35.0703 91.4895 31.49 82.4988 31.49C73.508 31.49 64.8855 35.0703 58.5307 41.4347C52.8563 47.1178 49.4448 54.6033 48.7377 62.5405H50.0984C51.7273 62.5405 53.2879 63.1877 54.4389 64.3429C55.5899 65.4957 56.2361 67.0562 56.2361 68.6877V101.138C56.2361 102.769 55.5899 104.332 54.4389 105.485C53.2879 106.638 51.7273 107.285 50.0984 107.285ZM49.8329 104H46.6659C43.3058 104 40.0863 102.63 37.7104 100.192C35.3345 97.7532 34 94.4463 34 91V78C34 74.5537 35.3345 71.2468 37.7104 68.8083C40.0863 66.3697 43.3058 65 46.6659 65H49.8329C50.6718 65 51.4796 65.3424 52.073 65.9539C52.6664 66.5629 53 67.3872 53 68.2506V100.749C53 101.613 52.6664 102.44 52.073 103.049C51.4796 103.658 50.6718 104 49.8329 104ZM118.333 104H115.167C114.326 104 113.521 103.658 112.927 103.049C112.334 102.44 112 101.613 112 100.749V68.2506C112 67.3872 112.334 66.5629 112.927 65.9539C113.521 65.3424 114.326 65 115.167 65H118.333C121.693 65 124.915 66.3697 127.292 68.8083C129.668 71.2468 131 74.5537 131 78V91C131 94.4463 129.668 97.7532 127.292 100.192C124.915 102.63 121.693 104 118.333 104ZM88.6675 127H82.3325C80.6547 127 79.0411 126.315 77.8542 125.097C76.6673 123.879 76 122.223 76 120.501C76 118.777 76.6673 117.123 77.8542 115.903C79.0411 114.685 80.6547 114 82.3325 114H88.6675C90.3477 114 91.9565 114.685 93.1458 115.903C94.3327 117.123 95 118.777 95 120.501C95 122.223 94.3327 123.879 93.1458 125.097C91.9565 126.315 90.3477 127 88.6675 127ZM70.3205 92.0995C70.7716 92.5201 71.2442 92.9161 71.7313 93.2826C74.6943 95.5184 78.2908 96.736 82 96.736C85.6996 96.736 89.2865 95.5234 92.2447 93.3023C92.7414 92.9309 93.2212 92.5275 93.6819 92.0995L94.8575 91L97 93.413L95.8244 94.51C92.0432 98.0421 87.1152 100 82 100C76.8872 100 71.9568 98.0421 68.178 94.51L67 93.4105L69.1449 91L70.3205 92.0995ZM71 68V77H68V68H71Z" fill="#03A9F4"/>
<defs>
<linearGradient id="paint0_linear_606_1350" x1="2.5" y1="2.5" x2="2.5" y2="154.5" gradientUnits="userSpaceOnUse">
<stop stop-color="#FFE0B2"/>
<stop offset="1" stop-color="#FF9800"/>
</linearGradient>
</defs>
</svg>
