<svg width="161" height="157" viewBox="0 0 161 157" fill="none" xmlns="http://www.w3.org/2000/svg">
<rect x="2.5" y="2.5" width="156" height="152" rx="15" stroke="url(#paint0_linear_606_1338)" stroke-width="4"/>
<path fill-rule="evenodd" clip-rule="evenodd" d="M79.0238 91.1163C80.8572 85.6856 84.3924 81.0364 89.1066 77.8587C93.826 74.6759 99.4275 73.1699 105.082 73.5606C116.238 74.3322 125.563 82.3199 128.251 93.2208H128.265V76.7903H131.5V96.5H112.063V93.2208H124.901C122.304 84.1029 114.339 77.4902 104.862 76.8324C99.9181 76.4911 95.0239 77.8067 90.8979 80.5888C86.8974 83.2869 83.87 87.1917 82.2297 91.7618C82.1802 91.9003 82.1317 92.0387 82.0846 92.1797L81.5608 93.7303L78.5 92.6693L79.0238 91.1163ZM128.976 111.886C127.143 117.316 123.608 121.964 118.895 125.142C114.175 128.324 108.574 129.83 102.92 129.439C91.765 128.668 82.44 120.681 79.752 109.781H79.735V126.21H76.5V106.5H95.9362V109.781H83.1019C85.6989 118.898 93.6637 125.51 103.14 126.168C108.084 126.509 112.978 125.191 117.103 122.409C121.104 119.712 124.132 115.807 125.771 111.235C125.821 111.099 125.869 110.961 125.916 110.822L126.439 109.269L129.5 110.333L128.976 111.886ZM73.5 48.5H105.5V51.5H73.5V48.5ZM85.6016 70.6168H51.5669C41.7189 70.6168 33.7361 78.5958 33.7361 88.4404C33.7361 98.2874 41.7189 106.264 51.5669 106.264H66.1493V109.5H51.5669C39.9328 109.5 30.5 100.072 30.5 88.4404C30.5 79.6834 35.85 72.175 43.4609 69C35.853 65.8225 30.5049 58.3141 30.5049 49.5596C30.5049 37.93 39.9365 28.5 51.5701 28.5H103.431C112.137 28.5 119.947 33.8527 123.084 41.9707C126.221 50.0912 124.039 59.3018 117.592 65.1519L116.394 66.2395L114.59 64.2521L114.219 63.8448L115.417 62.7572C120.873 57.8045 122.721 50.0083 120.066 43.1364C117.41 36.2645 110.8 31.7336 103.431 31.7336H51.5701C41.7226 31.7336 33.7407 39.715 33.7407 49.5596C33.7407 59.4017 41.7236 67.3832 51.5701 67.3832H85.6016V70.6168ZM52.0001 48.5C51.1714 48.5 50.5 49.1727 50.5 50.0011C50.5 50.8296 51.1714 51.5 52.0001 51.5C52.8286 51.5 53.5 50.8296 53.5 50.0011C53.5 49.1727 52.8286 48.5 52.0001 48.5ZM52.0001 86.5C53.3808 86.5 54.5 87.6187 54.5 88.9987C54.5 90.3813 53.3808 91.5 52.0001 91.5C50.6192 91.5 49.5 90.3813 49.5 88.9987C49.5 87.6187 50.6192 86.5 52.0001 86.5Z" fill="#03A9F4"/>
<defs>
<linearGradient id="paint0_linear_606_1338" x1="2.5" y1="2.5" x2="2.5" y2="154.5" gradientUnits="userSpaceOnUse">
<stop stop-color="#FFE0B2"/>
<stop offset="1" stop-color="#FF9800"/>
</linearGradient>
</defs>
</svg>
