<svg width="29" height="30" viewBox="0 0 29 30" fill="none" xmlns="http://www.w3.org/2000/svg">
<path fill-rule="evenodd" clip-rule="evenodd" d="M25.5119 16.5086C25.5858 16.0609 25.5858 15.538 25.5858 15.0151C25.5858 14.4922 25.5119 14.0444 25.5119 13.5216L28.6257 11.0574C28.9227 10.8335 28.9965 10.4602 28.7742 10.0868L25.8081 4.93391C25.6596 4.63492 25.215 4.48621 24.9181 4.63492L21.2104 6.1285C20.4689 5.53124 19.5796 5.00829 18.6897 4.63492L18.1705 0.677337C18.0966 0.379067 17.7997 0.0800781 17.4289 0.0800781H11.4967C11.126 0.0800781 10.8291 0.379067 10.7552 0.677337L10.1621 4.63492C9.27209 5.00829 8.45668 5.53116 7.64058 6.1285L3.93295 4.63492C3.56216 4.48621 3.19137 4.63492 3.04296 4.93391L0.0768454 10.0869C-0.0708713 10.3851 0.00288249 10.8335 0.225259 11.0575L3.41389 13.5216C3.41389 14.0444 3.34 14.4922 3.34 15.0151C3.34 15.538 3.41389 15.9857 3.41389 16.5086L0.300059 18.9727C0.00309163 19.1966 -0.0706621 19.5699 0.151575 19.9434L3.11769 25.0963C3.26617 25.3952 3.71079 25.5439 4.00768 25.3952L7.71538 23.9017C8.45689 24.4989 9.34619 25.0219 10.2361 25.3952L10.8292 29.3528C10.9037 29.7262 11.1999 29.9501 11.5707 29.9501H17.503C17.8737 29.9501 18.1706 29.6511 18.2445 29.3528L18.8383 25.3952C19.7276 25.0219 20.5437 24.499 21.3591 23.9017L25.0668 25.3952C25.4375 25.5439 25.8083 25.3952 25.9568 25.0963L28.9229 19.9433C29.0713 19.6451 28.9968 19.1966 28.7744 18.9727L25.5119 16.5086V16.5086ZM14.4629 20.2424C11.5706 20.2424 9.27222 17.9278 9.27222 15.0151C9.27222 12.1024 11.5706 9.7878 14.4629 9.7878C17.3551 9.7878 19.6536 12.1024 19.6536 15.0151C19.6536 17.9278 17.3551 20.2424 14.4629 20.2424V20.2424Z" fill="black" fill-opacity="0.54"/>
</svg>
