<svg width="20" height="16" viewBox="0 0 20 16" fill="none" xmlns="http://www.w3.org/2000/svg">
<path d="M13.0196 3.10751H7.24706L6.09882 1.7428C6.0602 1.69637 6.00231 1.67033 5.94196 1.67221H1.28471C0.573647 1.67739 0 2.25527 0 2.96633V11.3601C0.000862745 12.0735 0.579059 12.6517 1.29255 12.6526H13.0196C13.7331 12.6517 14.3113 12.0735 14.3122 11.3601V4.40006C14.3113 3.68657 13.7331 3.10837 13.0196 3.10751Z" fill="#757897"/>
<path d="M14.7153 1.43539H8.94118L7.79295 0.0706837C7.75432 0.0242523 7.69644 -0.00178689 7.63608 9.54656e-05H2.9804C2.33522 0.00115429 1.78965 0.477782 1.70197 1.11696H5.94824C6.17091 1.11641 6.38232 1.21468 6.52549 1.38519L7.50589 2.55068H13.0196C14.0394 2.55241 14.8657 3.37872 14.8675 4.39853V10.9679C15.514 10.8873 15.9995 10.338 16 9.68637V2.72637C15.9983 2.01653 15.4251 1.44057 14.7153 1.43539Z" fill="#757897"/>
<rect x="2.39999" y="8.80005" width="4.8" height="1.6" rx="0.8" fill="white"/>
<circle cx="14.4" cy="9.6" r="5.6" fill="white"/>
<path d="M13.4745 8.89692C13.6422 8.89692 13.7823 8.84801 13.8955 8.77208C13.8014 8.86483 13.6964 8.98799 13.6079 9.1507C13.4825 9.3812 13.4041 9.66478 13.4041 10.0144C13.4041 10.1825 13.4183 10.4399 13.58 10.6487C13.3929 10.8301 13.2778 11.0845 13.2778 11.3601C13.2778 11.8782 13.6933 12.3467 14.258 12.3467C14.8142 12.3467 15.2445 11.8868 15.2445 11.3601C15.2445 11.0879 15.132 10.84 14.9512 10.6608C15.0928 10.4968 15.1244 10.3075 15.1244 10.1786C15.1244 9.99887 15.1311 9.96006 15.1403 9.935C15.1403 9.93487 15.1404 9.93471 15.1404 9.93453C15.1429 9.92758 15.159 9.88228 15.2857 9.7831C15.3784 9.71105 15.5949 9.54016 15.7893 9.29241C15.9826 9.04615 16.1859 8.68355 16.1859 8.23263C16.1859 7.26015 15.31 6.69011 14.3401 6.69011C13.3045 6.69011 12.5954 7.33441 12.5954 8.03677C12.5954 8.31827 12.7216 8.54883 12.9071 8.69843C13.0788 8.83697 13.2877 8.89692 13.4745 8.89692ZM14.0522 8.63306C14.0873 8.59285 14.1144 8.555 14.1328 8.52863C14.1487 8.50567 14.1575 8.49258 14.1645 8.48228C14.1723 8.47061 14.1777 8.46253 14.1885 8.44773C14.1986 8.43384 14.2046 8.42689 14.2076 8.42382C14.2165 8.4203 14.2488 8.41039 14.3211 8.41039C14.3234 8.41039 14.3256 8.41041 14.3278 8.41043C14.2938 8.44328 14.2515 8.4782 14.1964 8.521C14.1848 8.53004 14.1715 8.54027 14.1571 8.55132C14.1251 8.57584 14.0879 8.6044 14.0522 8.63306ZM14.3913 8.33113C14.3915 8.33108 14.3913 8.3323 14.3902 8.33491C14.3905 8.33248 14.3911 8.33117 14.3913 8.33113ZM14.2098 8.42174C14.2098 8.42178 14.2094 8.42222 14.2086 8.42283L14.2098 8.42174ZM10.1 9.60005C10.1 7.22301 12.0232 5.30005 14.4 5.30005C16.777 5.30005 18.7 7.22322 18.7 9.60005C18.7 11.9771 16.7768 13.9 14.4 13.9C12.023 13.9 10.1 11.9768 10.1 9.60005Z" fill="#757897" stroke="#757897"/>
</svg>
